<svg width="1367" height="332" viewBox="0 0 1367 332" fill="none" xmlns="http://www.w3.org/2000/svg">
<path d="M225.214 70.96L143.854 254.2C136.174 271.24 128.374 285.52 120.454 297.04C112.774 308.32 103.294 316.96 92.0139 322.96C80.9739 328.72 66.6939 331.6 49.1739 331.6C35.7339 331.6 23.4939 329.8 12.4539 326.2V289.84C23.0139 294.4 34.5339 296.68 47.0139 296.68C59.9739 296.68 69.9339 293.8 76.8939 288.04C84.0939 282.28 90.4539 273.04 95.9739 260.32L0.213907 70.96H42.3339L106.774 203.44C108.214 206.32 109.894 210.04 111.814 214.6C113.974 219.16 115.654 223.24 116.854 226.84H118.294C119.494 223.96 120.934 220.12 122.614 215.32C124.534 210.52 126.214 206.56 127.654 203.44L184.534 70.96H225.214ZM259.321 328V70.96H414.841V104.44H298.201V176.8H331.321C356.521 176.8 376.441 180.04 391.081 186.52C405.721 192.76 416.041 201.52 422.041 212.8C428.281 224.08 431.401 236.92 431.401 251.32C431.401 275.32 423.841 294.16 408.721 307.84C393.601 321.28 368.881 328 334.561 328H259.321ZM298.201 295.24H331.681C352.801 295.24 368.041 291.76 377.401 284.8C386.761 277.6 391.441 266.44 391.441 251.32C391.441 235.48 386.281 224.56 375.961 218.56C365.641 212.56 349.081 209.56 326.281 209.56H298.201V295.24ZM627.986 328H483.266V70.96H627.986V104.08H522.146V177.52H621.506V210.28H522.146V294.52H627.986V328ZM755.657 70.96C789.257 70.96 813.737 77.8 829.097 91.48C844.457 104.92 852.137 123.76 852.137 148C852.137 162.4 848.897 175.84 842.417 188.32C836.177 200.8 825.617 211 810.737 218.92C795.857 226.6 775.697 230.44 750.257 230.44H722.537V328H683.657V70.96H755.657ZM752.777 103.72H722.537V197.68H745.937C767.777 197.68 784.217 193.96 795.257 186.52C806.537 179.08 812.177 166.72 812.177 149.44C812.177 134.08 807.377 122.68 797.777 115.24C788.177 107.56 773.177 103.72 752.777 103.72ZM1048.81 328H904.087V70.96H1048.81V104.08H942.967V177.52H1042.33V210.28H942.967V294.52H1048.81V328ZM925.687 19.48C925.687 12.52 927.487 7.59998 931.087 4.71998C934.927 1.59998 939.487 0.0399737 944.767 0.0399737C950.047 0.0399737 954.607 1.59998 958.447 4.71998C962.287 7.59998 964.207 12.52 964.207 19.48C964.207 25.96 962.287 30.88 958.447 34.24C954.607 37.36 950.047 38.92 944.767 38.92C939.487 38.92 934.927 37.36 931.087 34.24C927.487 30.88 925.687 25.96 925.687 19.48ZM994.447 19.48C994.447 12.52 996.247 7.59998 999.847 4.71998C1003.69 1.59998 1008.25 0.0399737 1013.53 0.0399737C1018.57 0.0399737 1023.01 1.59998 1026.85 4.71998C1030.69 7.59998 1032.61 12.52 1032.61 19.48C1032.61 25.96 1030.69 30.88 1026.85 34.24C1023.01 37.36 1018.57 38.92 1013.53 38.92C1008.25 38.92 1003.69 37.36 999.847 34.24C996.247 30.88 994.447 25.96 994.447 19.48ZM1216.44 328L1138.68 109.48H1137.24C1137.48 114.52 1137.84 121.12 1138.32 129.28C1138.8 137.2 1139.16 145.84 1139.4 155.2C1139.64 164.56 1139.76 173.8 1139.76 182.92V328H1104.48V70.96H1159.92L1233.72 277.24H1235.16L1311.12 70.96H1366.56V328H1328.76V180.76C1328.76 172.6 1328.88 164.08 1329.12 155.2C1329.6 146.08 1329.96 137.56 1330.2 129.64C1330.68 121.72 1331.04 115.12 1331.28 109.84H1329.84L1249.92 328H1216.44Z" fill="#C72825"/>
</svg>
